<svg width="16" height="17" viewBox="0 0 16 17" fill="none" xmlns="http://www.w3.org/2000/svg">
<rect x="15.364" y="17" width="15.364" height="16.5" rx="7.68198" transform="rotate(-180 15.364 17)" fill="#1E2224"/>
<path d="M8.03554 4.64645C7.84028 4.45118 7.5237 4.45118 7.32844 4.64645L4.14646 7.82843C3.95119 8.02369 3.95119 8.34027 4.14646 8.53553C4.34172 8.7308 4.6583 8.7308 4.85356 8.53553L7.68199 5.70711L10.5104 8.53553C10.7057 8.7308 11.0223 8.7308 11.2175 8.53553C11.4128 8.34027 11.4128 8.02369 11.2175 7.82843L8.03554 4.64645ZM8.18199 13L8.18199 5L7.18199 5L7.18199 13L8.18199 13Z" fill="white"/>
</svg>
