<?xml version="1.0" encoding="UTF-8" standalone="no"?>
<!DOCTYPE svg PUBLIC "-//W3C//DTD SVG 1.1//EN" "http://www.w3.org/Graphics/SVG/1.1/DTD/svg11.dtd">
<svg width="100%" height="100%" viewBox="0 0 813 841" version="1.1" xmlns="http://www.w3.org/2000/svg" xmlns:xlink="http://www.w3.org/1999/xlink" xml:space="preserve" xmlns:serif="http://www.serif.com/" style="fill-rule:evenodd;clip-rule:evenodd;stroke-linejoin:round;stroke-miterlimit:2;">
    <g id="Logo" transform="matrix(0.423438,0,0,0.778704,0,0)">
        <rect x="0" y="0" width="1920" height="1080" style="fill:none;"/>
        <g id="path3019" transform="matrix(4.90509,0,0,2.66725,-871.622,-945.045)">
            <path d="M504.733,587.712C515.132,567.006 520.618,543.943 520.618,520.638C520.618,438.218 453.564,371.166 371.145,371.166C288.726,371.166 221.674,438.218 221.674,520.638C221.674,544.086 227.222,567.273 237.744,588.073L188.771,620.721L191.367,625.697C226.933,693.892 296.758,736.255 373.596,736.255C449.423,736.255 518.82,694.705 554.705,627.82L557.389,622.815L504.733,587.712Z" style="fill-rule:nonzero;"/>
        </g>
        <g id="path3021" transform="matrix(4.90509,0,0,2.66725,-869.123,-946.379)">
            <path d="M488.391,591.802L491.171,586.769C491.205,586.707 491.237,586.645 491.27,586.582L494.908,581.125L494.097,581.126C503.312,562.409 508.173,541.634 508.173,520.637C508.173,445.111 446.727,383.666 371.2,383.666C295.674,383.666 234.229,445.111 234.229,520.637C234.229,541.771 239.151,562.667 248.48,581.476L247.692,581.477L251.323,586.925C251.356,586.985 251.387,587.046 251.42,587.106L254.223,592.146C250.016,594.95 212.668,619.849 205.262,624.786C239.409,685.935 303.362,723.755 373.651,723.755C442.969,723.755 506.478,686.711 540.898,626.807C533.298,621.741 492.827,594.76 488.391,591.802L488.391,591.802Z" style="fill:white;fill-rule:nonzero;"/>
        </g>
        <g id="path3023" transform="matrix(4.90509,0,0,2.66725,-869.123,-946.379)">
            <path d="M488.391,591.802L491.171,586.769C491.205,586.707 491.237,586.645 491.27,586.582L494.908,581.125L494.097,581.126C503.312,562.409 508.173,541.634 508.173,520.637C508.173,445.111 446.727,383.666 371.2,383.666C295.674,383.666 234.229,445.111 234.229,520.637C234.229,541.771 239.151,562.667 248.48,581.476L247.692,581.477L251.323,586.925C251.356,586.985 251.387,587.046 251.42,587.106L254.223,592.146C250.016,594.95 212.668,619.849 205.262,624.786C239.409,685.935 303.362,723.755 373.651,723.755C442.969,723.755 506.478,686.711 540.898,626.807C533.298,621.741 492.827,594.76 488.391,591.802L488.391,591.802Z" style="fill:white;fill-rule:nonzero;"/>
        </g>
        <g id="path3025" transform="matrix(4.90509,0,0,2.66725,-868.681,-945.41)">
            <path d="M370.847,665.031C325.365,665.031 284.933,643.443 259.216,609.96L229.172,629.989C261.243,674.942 313.824,704.253 373.254,704.253C432.472,704.253 484.886,675.147 516.989,630.467L483.741,608.302C458.097,642.73 417.078,665.031 370.847,665.031Z" style="fill-rule:nonzero;"/>
        </g>
        <g id="path3027" transform="matrix(4.90509,0,0,2.66725,-867.642,-945.323)">
            <path d="M372.828,623.658C319.943,623.658 277.072,580.785 277.072,527.902C277.072,475.019 319.943,432.147 372.828,432.147C422.556,432.147 463.42,470.057 468.121,518.55L489.119,518.55C484.54,458.539 434.396,411.27 373.21,411.27C309.007,411.27 256.96,463.317 256.96,527.52C256.96,591.723 309.007,643.77 373.21,643.77C434.828,643.77 485.238,595.831 489.2,535.217L468.276,535.217C464.536,584.678 423.25,623.658 372.828,623.658Z" style="fill-rule:nonzero;"/>
        </g>
        <g id="path3029" transform="matrix(4.90509,0,0,2.66725,-867.002,-946.672)">
            <path d="M372.278,583.011C342.146,583.011 317.719,558.584 317.719,528.454C317.719,498.323 342.146,473.896 372.278,473.896C399.025,473.896 421.261,493.15 425.922,518.55L444.221,518.55C439.219,483.073 408.752,455.776 371.893,455.776C331.542,455.776 298.829,488.487 298.829,528.838C298.829,569.19 331.542,601.902 371.893,601.902C410.095,601.902 441.428,572.579 444.662,535.217L426.403,535.217C423.07,562.154 400.117,583.011 372.278,583.011Z" style="fill-rule:nonzero;"/>
        </g>
        <g transform="matrix(2.36162,0,0,1.28419,0,41.0487)">
            <path d="M155.637,584.539C166.117,595.162 180.194,596.912 191.142,589.058L181.625,579.411C176.3,582.398 169.921,581.099 164.766,575.874C158.024,569.04 158.828,559.862 166.81,551.988C174.907,544.001 183.924,543.378 190.722,550.269C195.763,555.38 196.92,561.377 193.917,566.832L203.604,576.652C211.834,565.927 210.386,552.285 199.906,541.661C187.387,528.97 170.331,529.139 157.066,542.225C143.629,555.481 143.061,571.79 155.637,584.539Z" style="fill:white;fill-rule:nonzero;"/>
            <path d="M191.992,615.304L202.652,607.368L218.527,618.307L214.84,631.049L226.265,638.921L242.666,577.732L232.172,570.501L180.767,607.569L191.992,615.304ZM222.751,592.417C224.584,591.036 226.397,589.542 227.375,588.551C226.75,589.883 226.02,592.222 225.408,594.248L221.696,607.169L211.999,600.486L222.751,592.417Z" style="fill:white;fill-rule:nonzero;"/>
            <path d="M252.428,604.644C248.274,613.476 250.663,621.285 259.372,627.788L266.83,633.346C270.064,635.758 270.73,637.943 269.322,640.935C267.709,644.366 263.356,644.904 258.027,642.398C252.771,639.926 250.882,636.363 252.735,632.422L240.983,626.895C236.211,637.041 240.967,647.211 253.011,652.875C265.42,658.711 276.788,655.767 281.697,645.329C285.713,636.788 283.277,630.027 274.569,623.525L267.256,618.036C263.838,615.448 262.914,613.052 264.459,609.767C266.141,606.191 270.237,605.443 275.054,607.708C279.507,609.802 281.255,613.477 279.47,617.273L291.222,622.799C296.028,612.58 291.75,602.724 280.144,597.266C268.537,591.807 257.028,594.863 252.428,604.644Z" style="fill:white;fill-rule:nonzero;"/>
            <path d="M315.971,654.169C327.676,657.537 337.714,652.115 341.015,640.643C344.317,629.17 338.695,619.243 326.99,615.875L303.735,609.183L287.228,666.546L299.786,670.16L305.273,651.09L315.971,654.169ZM320.987,626.234C327.034,627.974 329.299,631.48 327.76,636.828C326.22,642.177 322.439,643.943 316.392,642.203L308.486,639.928L313.081,623.959L320.987,626.234Z" style="fill:white;fill-rule:nonzero;"/>
            <path d="M364.471,623.983L351.519,622.251L343.611,681.417L379.91,686.268L381.513,674.275L358.166,671.155L364.471,623.983Z" style="fill:white;fill-rule:nonzero;"/>
            <path d="M431.412,686.904L431.324,674.805L406.48,674.986L406.39,662.645L428.41,662.484L428.326,651.03L406.306,651.191L406.22,639.495L431.064,639.313L430.976,627.214L393.065,627.491L393.501,687.181L431.412,686.904Z" style="fill:white;fill-rule:nonzero;"/>
            <path d="M499.339,676.546C513.778,672.779 522.33,661.462 521,648.054L507.887,651.474C507.813,657.579 503.499,662.456 496.397,664.309C487.108,666.732 479.561,661.448 476.731,650.599C473.86,639.593 477.827,631.473 487.193,629.029C494.14,627.217 499.912,629.213 503.136,634.54L516.483,631.059C511.308,618.57 498.769,613.005 484.329,616.772C467.08,621.272 458.701,636.129 463.405,654.159C468.169,672.423 482.011,681.066 499.339,676.546Z" style="fill:white;fill-rule:nonzero;"/>
            <path d="M576.141,612.21C568.156,595.822 551.911,589.74 536.321,597.337C520.803,604.898 515.619,621.512 523.605,637.9C531.59,654.288 547.762,660.406 563.28,652.844C578.87,645.247 584.127,628.598 576.141,612.21ZM563.742,618.252C568.688,628.404 566.542,637.257 557.913,641.462C549.211,645.702 540.987,642.082 535.969,631.785C530.987,621.561 533.204,612.853 541.906,608.613C550.535,604.408 558.759,608.028 563.742,618.252Z" style="fill:white;fill-rule:nonzero;"/>
            <path d="M611.923,623.149L599.442,606.396L607.527,600.372L627.189,611.776L638.638,603.246L616.061,590.493C619.341,583.825 618.716,577.45 614.089,571.241C606.716,561.344 595.925,560.632 584.282,569.306L565.782,583.089L601.444,630.956L611.923,623.149ZM583.201,584.597L591.222,578.621C595.879,575.151 600.04,575.471 603.028,579.482C606.064,583.557 605.147,587.861 600.555,591.283L592.598,597.211L583.201,584.597Z" style="fill:white;fill-rule:nonzero;"/>
            <path d="M652.361,562.315C660.888,553.616 660.888,542.208 652.362,533.852C643.837,525.495 632.431,525.723 623.904,534.421L606.965,551.703L649.593,593.487L658.74,584.155L644.569,570.264L652.361,562.315ZM630.167,544.626C634.571,540.133 638.732,539.806 642.707,543.702C646.681,547.598 646.438,551.764 642.034,556.258L636.274,562.133L624.407,550.502L630.167,544.626Z" style="fill:white;fill-rule:nonzero;"/>
        </g>
    </g>
</svg>
